<?xml version="1.0" encoding="UTF-8" standalone="no"?> <!-- Created with Vectornator for iOS (http://vectornator.io/) --><!DOCTYPE svg PUBLIC "-//W3C//DTD SVG 1.1//EN" "http://www.w3.org/Graphics/SVG/1.1/DTD/svg11.dtd">
<svg style="fill-rule:evenodd;clip-rule:evenodd;stroke-linecap:round;stroke-linejoin:round;" xmlns:vectornator="http://vectornator.io" xmlns:xlink="http://www.w3.org/1999/xlink" xmlns="http://www.w3.org/2000/svg" xml:space="preserve" version="1.1" viewBox="0 0 297.675 209.79">
<metadata>
<vectornator:setting key="DimensionsVisible" value="1"/>
<vectornator:setting key="New" value="1"/>
<vectornator:setting key="SnapToPoints" value="0"/>
<vectornator:setting key="GuidesVisible" value="1"/>
<vectornator:setting key="RulersVisible" value="1"/>
<vectornator:setting key="CMYKEnabledKey" value="0"/>
<vectornator:setting key="SnapToEdges" value="0"/>
<vectornator:setting key="DisplayWhiteBackground" value="0"/>
<vectornator:setting key="SnapToGuides" value="1"/>
<vectornator:setting key="GridSpacing" value="36"/>
<vectornator:setting key="Units" value="Millimeters"/>
<vectornator:setting key="SnapToGrid" value="0"/>
<vectornator:setting key="DynamicGuides" value="0"/>
</metadata>
<defs>
<radialGradient cx="193.851" r="5.63889" id="RadialGradient" gradientUnits="userSpaceOnUse" gradientTransform="matrix(1.28967 0.0101239 -0.0908468 1.06365 -30.62 -8.08175)" cy="81.0679">
<stop stop-color="#f73333" offset="0"/>
<stop stop-color="#d3bebe" offset="1"/>
</radialGradient>
<radialGradient cx="193.851" r="5.63889" id="RadialGradient_2" gradientUnits="userSpaceOnUse" gradientTransform="matrix(1.12118 -0.333759 0.365563 1.06901 -66.925 67.2053)" cy="81.0679">
<stop stop-color="#f73333" offset="0"/>
<stop stop-color="#d3bebe" offset="1"/>
</radialGradient>
</defs>
<g id="Banana Man" vectornator:layerName="Banana Man">
<path stroke="#000000" stroke-width="1.52" d="M168.11+43.2515C168.11+43.2515+193.013+136.982+86.816+188.949C86.816+188.949+86.999+203.565+97.9364+201.616C108.874+199.667+150.808+192.854+181.115+168.508C192.976+158.98+200.294+150.245+205.86+141.365C214.517+127.556+217.861+114.309+219.162+104.234C221.624+85.165+219.048+65.7797+213.378+53.694C210.459+47.4734+205.192+44.3236+203.221+41.913C194.101+30.7532+185.418+38.3235+178.79+32.2694C172.161+26.2153+161.998+4.29794+156.154+3.95859C150.309+3.61925+142.897+11.7701+142.897+11.7701C142.897+11.7701+160.238+24.9803+160.547+25.3617C160.856+25.7432+168.582+41.5362+168.11+43.2515Z" fill="#f4e80b" stroke-linecap="round" opacity="1" stroke-linejoin="round"/>
<path stroke="#000000" stroke-width="1.52" d="M143.431+11.2325L149.098+16.3329C149.098+16.3329+160.265+4.8686+158.348+3.8446C152.681+0.818482+144.98+5.28817+143.431+11.2325Z" fill="#090101" stroke-linecap="round" opacity="1" stroke-linejoin="round"/>
<path stroke="#000000" stroke-width="1.52" d="M93.5026+200.36C87.9613+199.015+87.4754+189.183+87.4754+189.183L98.3728+184.058C102.741+195.257+103.711+190.105+103.559+195.68" fill="#090101" stroke-linecap="round" opacity="1" stroke-linejoin="round"/>
<path stroke="#000000" stroke-width="1.52" d="M102.808+190.18C102.808+190.18+137.6+176.039+157.944+146.772C171.328+127.518+177.345+105.075+177.192+82.9976C177.117+72.23+175.457+61.3834+171.826+52.4627C170.808+49.9632+169.293+47.5775+168.519+44.9674" fill="none" stroke-linecap="round" opacity="1" stroke-linejoin="round"/>
<path d="M92.7905+201.287C110.114+200.494+134.855+193.599+156.342+183.223C173.175+175.095+188.822+162.137+196.341+152.53C182.718+162.54+164.571+177.136+146.628+184.959C127.835+193.152+108.427+196.86+92.7905+201.287" opacity="1" fill="#090700"/>
<path d="M176.606+103.849C169.887+114.691+164.531+131.319+159.374+144.8C167.355+139.884+176.684+115.43+176.606+103.849" opacity="1" fill="#070101"/>
<path d="M176.887+130.335C159.417+151.52+139.048+184.39+106.092+184.239C131.646+194.444+168.885+154.499+176.887+130.335" opacity="1" fill="#070101"/>
<path d="M173.528+26.9736C173.528+26.9736+179.303+36.8115+180.352+36.9799C183.246+37.4446+188.603+38.1258+191.489+36.39C193.467+35.2007+185.159+36.8299+181.17+34.6968C176.938+32.4341+173.474+26.7919+173.528+26.9736Z" opacity="1" fill="#f6cd4a"/>
<path d="M197.146+37.9014C197.629+38.0166+199.083+38.796+201.056+40.6507C201.893+41.4369+202.753+42.672+203.785+43.7163C205.949+45.9063+208.936+47.7733+210.982+51.2296C217.042+61.4663+222.079+82.0618+217.52+109.311C216.779+113.741+215.95+115.693+214.533+121.076C212.858+127.437+208.687+136.948+203.744+143.429L199.371+149.277L194.533+154.869L200.31+144.007L211.678+119.71C211.678+119.71+218.329+91.765+215.114+70.6958C213.258+58.5269+204.885+47.5841+200.213+41.9347C198.004+39.264+196.622+37.7763+197.146+37.9014Z" opacity="1" fill="#f6cd4a"/>
<path d="M150.213+16.2982L161.048+24.7722L164.09+26.302C164.09+26.302+156.858+20.4505+155.697+16.5974C154.536+12.7444+156.414+9.16732+156.414+9.16732C156.414+9.16732+150.047+16.5731+150.213+16.2982Z" opacity="1" fill="#f6cd4a"/>
</g>
<g id="Face" vectornator:layerName="Face">
<path d="M190.29+78.2357C190.301+78.2647+189.341+68.9053+180.495+70.3696C177.481+70.8686+177.31+71.8046+176.581+72.6519C175.169+74.2911+175.533+76.6763+175.859+77.2017C176.353+77.9987+175.745+81.9223+183.491+80.8579C184.378+80.7361+183.947+81.1882+184.08+80.7043C184.286+79.9533+184.065+78.5872+184.269+78.468C184.473+78.3489+181.239+77.3532+181.239+77.3532L183.757+75.3518C183.757+75.3518+180.513+71.2675+180.559+71.3097C180.605+71.3518+186.471+68.5699+190.29+78.2357Z" opacity="1" fill="#090909"/>
<path d="M208.397+74.6006C208.401+74.6308+209.976+65.0016+201.117+66.0615C198.099+66.4226+197.686+67.3725+196.762+68.2036C194.973+69.8116+194.685+72.2715+194.857+72.8255C195.118+73.666+193.49+77.6525+201.19+76.9475C202.071+76.8668+201.538+77.3082+201.794+76.8195C202.192+76.0609+202.345+74.6514+202.572+74.5395C202.798+74.4277+199.968+73.2478+199.968+73.2478L202.912+71.3239C202.912+71.3239+200.896+66.9816+200.928+67.027C200.961+67.0725+207.318+64.5157+208.397+74.6006Z" opacity="1" fill="#090909"/>
<path d="M190.417+78.2585L184.151+80.6241L184.211+78.3629L181.034+77.3593L183.509+75.2402L180.613+71.2935C180.613+71.2935+186.346+68.4805+190.417+78.2585Z" opacity="1" fill="#fbf8f6"/>
<path d="M208.513+74.6302L201.884+76.7409L202.544+74.429L199.77+73.2439L202.705+71.1973L200.984+67.0131C200.984+67.0131+207.223+64.418+208.513+74.6302Z" opacity="1" fill="#fbf8f6"/>
<path stroke="#000000" stroke-width="1.52" d="M191.03+86.2882C191.122+86.2769+190.727+83.9183+192.571+83.5979C193.78+83.3879+196.846+84.2109+198.512+86.5925" fill="none" stroke-linecap="round" opacity="1" stroke-linejoin="round"/>
<path stroke="#000000" stroke-width="1.52" d="M191.596+92.0137C191.596+92.0137+205.07+102.414+211.154+86.7688" fill="none" stroke-linecap="round" opacity="1" stroke-linejoin="round"/>
<path stroke="#000000" stroke-width="1.52" d="M208.607+86.8812C208.607+86.8812+212.712+84.7684+212.916+86.909" fill="none" stroke-linecap="round" opacity="1" stroke-linejoin="round"/>
<path stroke="#000000" stroke-width="1.52" d="M190.1+92.7226C190.1+92.7226+189.242+90.8498+192.77+91.1388" fill="none" stroke-linecap="round" opacity="1" stroke-linejoin="round"/>
<path d="M204.746+80.0516C204.903+78.2083+208.287+76.7395+212.303+76.771C216.32+76.8025+219.448+78.3224+219.29+80.1658C219.133+82.0091+215.75+83.4779+211.733+83.4463C207.717+83.4148+204.588+81.8949+204.746+80.0516Z" opacity="1" fill="url(#RadialGradient)"/>
<path d="M101.571+190.073C101.571+190.073+117.756+183.949+135.493+169.43C143.817+162.615+148.542+157.859+156.799+147.204C157.706+146.033+162.863+137.296+163.566+136.012C168.66+126.712+170+121.135+173.007+112.522C175.962+104.058+177.006+90.0857+176.179+77.5288C175.296+64.1234+171.975+53.6196+170.593+50.7999C169.163+47.8824+170.95+53.8518+171.287+61.7377C171.594+68.9179+170.831+85.7081+168.118+96.7241C165.721+106.464+163.089+113.061+158.992+122.967C158.234+124.802+154.003+132.099+152.972+133.824C137.317+160.013+103.564+181.047+101.236+182.108C100.154+182.601+98.4698+183.376+98.4698+183.376C98.4698+183.376+99.7781+189.844+101.571+190.073Z" opacity="1" fill="#f6cd4a"/>
<path d="M173.73+91.0498C173.096+89.1972+175.413+86.8527+178.905+85.8133C182.397+84.7739+185.741+85.4331+186.374+87.2857C187.008+89.1384+184.691+91.4828+181.199+92.5222C177.707+93.5617+174.363+92.9024+173.73+91.0498Z" opacity="1" fill="url(#RadialGradient_2)"/>
</g>
</svg>
